<svg id="Layer_1" data-name="Layer 1" xmlns="http://www.w3.org/2000/svg" viewBox="0 0 300 303"><defs><style>.cls-1{fill:#ed1c24;opacity:0;}.cls-2{fill:#fff;stroke:#939598;stroke-miterlimit:10;stroke-width:2.35px;}.cls-3{fill:#231f20;}</style></defs><rect class="cls-1" width="300" height="303"/><path class="cls-2" d="M385.24,378.38l-10.75,9.94c-10.56,9.75-27.62,1.54-26.57-12.8l1.06-14.6a15.85,15.85,0,0,0-13.41-16.83l-14.48-2.21c-14.21-2.17-18.42-20.62-6.56-28.75l12.08-8.27a15.85,15.85,0,0,0,4.79-21l-7.29-12.69c-7.17-12.47,4.63-27.27,18.38-23.06l14,4.29a15.85,15.85,0,0,0,19.39-9.34l5.38-13.61c5.28-13.38,24.2-13.38,29.48,0l5.38,13.61a15.85,15.85,0,0,0,19.39,9.34l14-4.29c13.75-4.21,25.55,10.59,18.38,23.06l-7.29,12.69a15.85,15.85,0,0,0,4.79,21l12.08,8.27c11.86,8.13,7.65,26.58-6.56,28.75l-14.48,2.21A15.85,15.85,0,0,0,443,360.92l1.06,14.6c1.05,14.34-16,22.55-26.57,12.8l-10.75-9.94A15.84,15.84,0,0,0,385.24,378.38Z" transform="translate(-246 -154.5)"/><path class="cls-3" d="M354.34,339.35V280.8H390v9.9H364v13h24.12v9.87H364v15.89h26.84v9.91Z" transform="translate(-246 -154.5)"/><path class="cls-3" d="M399.16,339.35V280.8h9.42l19.65,39.1V280.8h9v58.55h-9.75l-19.33-38.18v38.18Z" transform="translate(-246 -154.5)"/></svg>